<svg id="visual" viewBox="0 0 960 540" width="960" height="540" xmlns="http://www.w3.org/2000/svg" xmlns:xlink="http://www.w3.org/1999/xlink" version="1.1"><rect x="0" y="0" width="960" height="540" fill="#00412a"></rect><path d="M0 304L11.5 314.7C23 325.3 46 346.7 68.8 358.3C91.7 370 114.3 372 137.2 367.2C160 362.3 183 350.7 205.8 339.2C228.7 327.7 251.3 316.3 274.2 313.8C297 311.3 320 317.7 342.8 327.8C365.7 338 388.3 352 411.2 357.5C434 363 457 360 480 354.7C503 349.3 526 341.7 548.8 345.7C571.7 349.7 594.3 365.3 617.2 366.3C640 367.3 663 353.7 685.8 349.2C708.7 344.7 731.3 349.3 754.2 352.7C777 356 800 358 822.8 357.5C845.7 357 868.3 354 891.2 345.2C914 336.3 937 321.7 948.5 314.3L960 307L960 0L948.5 0C937 0 914 0 891.2 0C868.3 0 845.7 0 822.8 0C800 0 777 0 754.2 0C731.3 0 708.7 0 685.8 0C663 0 640 0 617.2 0C594.3 0 571.7 0 548.8 0C526 0 503 0 480 0C457 0 434 0 411.2 0C388.3 0 365.7 0 342.8 0C320 0 297 0 274.2 0C251.3 0 228.7 0 205.8 0C183 0 160 0 137.2 0C114.3 0 91.7 0 68.8 0C46 0 23 0 11.5 0L0 0Z" fill="#fabc69"></path><path d="M0 314L11.5 309.5C23 305 46 296 68.8 299.5C91.7 303 114.3 319 137.2 326.3C160 333.7 183 332.3 205.8 323C228.7 313.7 251.3 296.3 274.2 286.2C297 276 320 273 342.8 275.5C365.7 278 388.3 286 411.2 296C434 306 457 318 480 314.7C503 311.3 526 292.7 548.8 284.8C571.7 277 594.3 280 617.2 285.5C640 291 663 299 685.8 300.8C708.7 302.7 731.3 298.3 754.2 292.7C777 287 800 280 822.8 284C845.7 288 868.3 303 891.2 307C914 311 937 304 948.5 300.5L960 297L960 0L948.5 0C937 0 914 0 891.2 0C868.3 0 845.7 0 822.8 0C800 0 777 0 754.2 0C731.3 0 708.7 0 685.8 0C663 0 640 0 617.2 0C594.3 0 571.7 0 548.8 0C526 0 503 0 480 0C457 0 434 0 411.2 0C388.3 0 365.7 0 342.8 0C320 0 297 0 274.2 0C251.3 0 228.7 0 205.8 0C183 0 160 0 137.2 0C114.3 0 91.7 0 68.8 0C46 0 23 0 11.5 0L0 0Z" fill="#f3a758"></path><path d="M0 241L11.5 241.8C23 242.7 46 244.3 68.8 241.7C91.7 239 114.3 232 137.2 234.7C160 237.3 183 249.7 205.8 252.5C228.7 255.3 251.3 248.7 274.2 243.3C297 238 320 234 342.8 231.8C365.7 229.7 388.3 229.3 411.2 237C434 244.7 457 260.3 480 261.7C503 263 526 250 548.8 246.8C571.7 243.7 594.3 250.3 617.2 250.7C640 251 663 245 685.8 248.2C708.7 251.3 731.3 263.7 754.2 264C777 264.3 800 252.7 822.8 250.7C845.7 248.7 868.3 256.3 891.2 252.7C914 249 937 234 948.5 226.5L960 219L960 0L948.5 0C937 0 914 0 891.2 0C868.3 0 845.7 0 822.8 0C800 0 777 0 754.2 0C731.3 0 708.7 0 685.8 0C663 0 640 0 617.2 0C594.3 0 571.7 0 548.8 0C526 0 503 0 480 0C457 0 434 0 411.2 0C388.3 0 365.7 0 342.8 0C320 0 297 0 274.2 0C251.3 0 228.7 0 205.8 0C183 0 160 0 137.2 0C114.3 0 91.7 0 68.8 0C46 0 23 0 11.5 0L0 0Z" fill="#eb9249"></path><path d="M0 221L11.5 217.7C23 214.3 46 207.7 68.8 198.7C91.7 189.7 114.3 178.3 137.2 175.7C160 173 183 179 205.8 189.2C228.7 199.3 251.3 213.7 274.2 219C297 224.3 320 220.7 342.8 220.3C365.7 220 388.3 223 411.2 223.3C434 223.7 457 221.3 480 212.7C503 204 526 189 548.8 187C571.7 185 594.3 196 617.2 195.3C640 194.7 663 182.3 685.8 178.2C708.7 174 731.3 178 754.2 184.7C777 191.3 800 200.7 822.8 202.5C845.7 204.3 868.3 198.7 891.2 195.8C914 193 937 193 948.5 193L960 193L960 0L948.5 0C937 0 914 0 891.2 0C868.3 0 845.7 0 822.8 0C800 0 777 0 754.2 0C731.3 0 708.7 0 685.8 0C663 0 640 0 617.2 0C594.3 0 571.7 0 548.8 0C526 0 503 0 480 0C457 0 434 0 411.2 0C388.3 0 365.7 0 342.8 0C320 0 297 0 274.2 0C251.3 0 228.7 0 205.8 0C183 0 160 0 137.2 0C114.3 0 91.7 0 68.8 0C46 0 23 0 11.5 0L0 0Z" fill="#e37d3c"></path><path d="M0 155L11.5 154.2C23 153.3 46 151.7 68.8 146.2C91.7 140.7 114.3 131.3 137.2 136.2C160 141 183 160 205.8 161C228.7 162 251.3 145 274.2 135.2C297 125.3 320 122.7 342.8 121.7C365.7 120.7 388.3 121.3 411.2 128.8C434 136.3 457 150.7 480 150.3C503 150 526 135 548.8 137.2C571.7 139.3 594.3 158.7 617.2 160.8C640 163 663 148 685.8 140.5C708.7 133 731.3 133 754.2 140.3C777 147.7 800 162.3 822.8 165.3C845.7 168.3 868.3 159.7 891.2 152.3C914 145 937 139 948.5 136L960 133L960 0L948.5 0C937 0 914 0 891.2 0C868.3 0 845.7 0 822.8 0C800 0 777 0 754.2 0C731.3 0 708.7 0 685.8 0C663 0 640 0 617.2 0C594.3 0 571.7 0 548.8 0C526 0 503 0 480 0C457 0 434 0 411.2 0C388.3 0 365.7 0 342.8 0C320 0 297 0 274.2 0C251.3 0 228.7 0 205.8 0C183 0 160 0 137.2 0C114.3 0 91.7 0 68.8 0C46 0 23 0 11.5 0L0 0Z" fill="#da6731"></path><path d="M0 75L11.5 75.7C23 76.3 46 77.7 68.8 79.7C91.7 81.7 114.3 84.3 137.2 85.7C160 87 183 87 205.8 84.8C228.7 82.7 251.3 78.3 274.2 80.8C297 83.3 320 92.7 342.8 99.8C365.7 107 388.3 112 411.2 113C434 114 457 111 480 112.8C503 114.7 526 121.3 548.8 116.2C571.7 111 594.3 94 617.2 90.3C640 86.7 663 96.3 685.8 104C708.7 111.7 731.3 117.3 754.2 112.7C777 108 800 93 822.8 88.8C845.7 84.7 868.3 91.3 891.2 94.2C914 97 937 96 948.5 95.5L960 95L960 0L948.5 0C937 0 914 0 891.2 0C868.3 0 845.7 0 822.8 0C800 0 777 0 754.2 0C731.3 0 708.7 0 685.8 0C663 0 640 0 617.2 0C594.3 0 571.7 0 548.8 0C526 0 503 0 480 0C457 0 434 0 411.2 0C388.3 0 365.7 0 342.8 0C320 0 297 0 274.2 0C251.3 0 228.7 0 205.8 0C183 0 160 0 137.2 0C114.3 0 91.7 0 68.8 0C46 0 23 0 11.5 0L0 0Z" fill="#d14f29"></path><path d="M0 53L11.5 54.2C23 55.3 46 57.7 68.8 59.8C91.7 62 114.3 64 137.2 67C160 70 183 74 205.8 75.2C228.7 76.3 251.3 74.7 274.2 68.2C297 61.7 320 50.3 342.8 50.3C365.7 50.3 388.3 61.7 411.2 62.3C434 63 457 53 480 46.2C503 39.3 526 35.7 548.8 36C571.7 36.3 594.3 40.7 617.2 44.3C640 48 663 51 685.8 53.8C708.7 56.7 731.3 59.3 754.2 59.5C777 59.7 800 57.3 822.8 57.8C845.7 58.3 868.3 61.7 891.2 58C914 54.3 937 43.7 948.5 38.3L960 33L960 0L948.5 0C937 0 914 0 891.2 0C868.3 0 845.7 0 822.8 0C800 0 777 0 754.2 0C731.3 0 708.7 0 685.8 0C663 0 640 0 617.2 0C594.3 0 571.7 0 548.8 0C526 0 503 0 480 0C457 0 434 0 411.2 0C388.3 0 365.7 0 342.8 0C320 0 297 0 274.2 0C251.3 0 228.7 0 205.8 0C183 0 160 0 137.2 0C114.3 0 91.7 0 68.8 0C46 0 23 0 11.5 0L0 0Z" fill="#c73324"></path></svg>